<?xml version="1.0" encoding="UTF-8" standalone="no"?>
<!-- Created with Inkscape (http://www.inkscape.org/) -->

<svg
   xmlns:osb="http://www.openswatchbook.org/uri/2009/osb"
   xmlns:dc="http://purl.org/dc/elements/1.1/"
   xmlns:cc="http://creativecommons.org/ns#"
   xmlns:rdf="http://www.w3.org/1999/02/22-rdf-syntax-ns#"
   xmlns:svg="http://www.w3.org/2000/svg"
   xmlns="http://www.w3.org/2000/svg"
   xmlns:sodipodi="http://sodipodi.sourceforge.net/DTD/sodipodi-0.dtd"
   xmlns:inkscape="http://www.inkscape.org/namespaces/inkscape"
   width="610mm"
   height="457mm"
   viewBox="0 0 2161.4173 1619.2913"
   id="svg2"
   version="1.1"
   inkscape:version="0.91 r13725"
   sodipodi:docname="Smile_Schablone_1.svg">
  <defs
     id="defs4">
    <linearGradient
       id="linearGradient4168"
       osb:paint="solid">
      <stop
         style="stop-color:#000000;stop-opacity:1;"
         offset="0"
         id="stop4170" />
    </linearGradient>
  </defs>
  <sodipodi:namedview
     id="base"
     pagecolor="#ffffff"
     bordercolor="#666666"
     borderopacity="1.0"
     inkscape:pageopacity="0.0"
     inkscape:pageshadow="2"
     inkscape:zoom="0.49497475"
     inkscape:cx="547.07388"
     inkscape:cy="575.89388"
     inkscape:document-units="px"
     inkscape:current-layer="layer1"
     showgrid="false"
     inkscape:window-width="2560"
     inkscape:window-height="1311"
     inkscape:window-x="0"
     inkscape:window-y="55"
     inkscape:window-maximized="1" />
  <metadata
     id="metadata7">
    <rdf:RDF>
      <cc:Work
         rdf:about="">
        <dc:format>image/svg+xml</dc:format>
        <dc:type
           rdf:resource="http://purl.org/dc/dcmitype/StillImage" />
        <dc:title></dc:title>
      </cc:Work>
    </rdf:RDF>
  </metadata>
  <g
     inkscape:label="Ebene 1"
     inkscape:groupmode="layer"
     id="layer1"
     transform="translate(0,566.92913)">
    <path
       style="font-style:normal;font-weight:normal;font-size:437.5px;line-height:67.00000167%;font-family:sans-serif;text-align:center;letter-spacing:0px;word-spacing:0px;text-anchor:middle;fill:none;fill-opacity:1;stroke:#ff0000;stroke-width:1px;stroke-linecap:butt;stroke-linejoin:miter;stroke-opacity:1"
       d="M 380.11719 27.599609 C 345.22543 27.599609 317.8112 35.717772 297.87305 51.953125 C 291.13531 57.479044 285.54602 63.699543 281.10156 70.611328 L 281.10156 33.367188 L 237.73633 33.367188 L 237.73633 227.125 C 237.73633 261.30469 231.54053 285.94108 219.15039 301.03711 C 206.76026 315.99072 186.75163 323.46875 159.12305 323.46875 C 131.35205 323.46875 111.27099 315.99072 98.880859 301.03711 C 86.490723 285.94108 80.294922 261.30469 80.294922 227.125 L 80.294922 33.367188 L 36.929688 33.367188 L 36.929688 232.46484 C 36.929688 274.05013 47.183594 305.45198 67.691406 326.67188 C 88.341634 347.89176 118.8195 358.50195 159.12305 358.50195 C 199.28418 358.50195 229.61914 347.89176 250.12695 326.67188 C 258.12198 318.45629 264.5613 308.70773 269.46094 297.43945 L 269.46094 338.20898 C 287.6901 344.9025 305.27913 349.95703 322.22656 353.375 C 339.3164 356.79297 355.40788 358.50195 370.50391 358.50195 C 375.7262 358.50195 380.77941 358.36342 385.67188 358.0918 C 374.3882 372.56219 368.74219 390.43921 368.74219 411.72852 C 368.74219 436.08154 375.93441 455.09375 390.31836 468.76562 C 404.70231 482.4375 427.98796 492.47803 460.17383 498.88672 L 486.44922 504.01367 C 508.38119 508.42855 524.11833 515.05111 533.66016 523.88086 C 543.3444 532.71061 548.18555 544.95736 548.18555 560.62305 C 548.18555 578.56738 541.49252 592.38216 528.10547 602.06641 C 514.71843 611.75065 495.70622 616.59375 471.06836 616.59375 C 454.83301 616.59375 438.31283 614.10172 421.50781 609.11719 C 404.7028 604.13265 387.54248 596.72705 370.02539 586.90039 L 370.02539 619.61719 L 369.9668 619.61719 L 369.9668 938.55664 L 370.62109 938.55664 L 465.98438 1079.7969 L 465.98438 1231.6816 L 509.34961 1231.6816 L 509.34961 1079.7969 L 569.59766 990.56445 C 559.29822 1013.9442 554.14258 1041.2645 554.14258 1072.5332 C 554.14258 1122.9482 567.5306 1163.1084 594.30469 1193.0156 C 598.48529 1197.6607 602.88262 1201.9435 607.49609 1205.8672 L 596.50195 1205.8672 L 596.50195 1524.8066 L 794.95898 1524.8066 L 827.18359 1524.8066 L 827.18359 1205.8672 L 796.08398 1205.8672 C 800.67525 1201.9436 805.05058 1197.6607 809.20898 1193.0156 C 830.96669 1168.5961 843.88439 1137.499 847.96094 1099.7246 L 847.96094 1111.8398 C 847.96094 1153.3096 858.1607 1184.6498 878.55469 1205.8672 L 871.06055 1205.8672 L 871.06055 1524.8066 L 914.21289 1524.8066 L 914.21289 1372.4941 L 1040.6777 1372.4941 L 1040.6777 1336.1777 L 914.21289 1336.1777 L 914.21289 1242.1836 L 1054.3496 1242.1836 L 1054.3496 1212.3867 C 1056.7253 1210.3887 1059.0001 1208.2799 1061.1582 1206.0469 C 1078.4527 1188.2754 1088.5001 1163.3584 1091.3105 1131.3027 L 1091.3105 1205.8672 L 1091.1367 1205.8672 L 1091.1367 1524.8066 L 1296.6406 1524.8066 L 1296.6406 1488.4922 L 1134.2871 1488.4922 L 1134.2871 1372.9219 L 1286.1738 1372.9219 L 1286.1738 1336.6055 L 1134.2871 1336.6055 L 1134.2871 1242.1836 L 1292.7969 1242.1836 L 1292.7969 1230.4785 L 1293.3965 1231.6816 L 1339.7539 1231.6816 L 1295.9609 1144.5234 C 1287.1312 1126.5791 1278.3005 1112.4805 1269.4707 1102.2266 C 1260.7834 1091.9727 1251.8117 1085.2796 1242.5547 1082.1465 C 1260.3566 1077.0195 1273.8856 1067.8325 1283.1426 1054.5879 C 1292.542 1041.3433 1297.2422 1024.6821 1297.2422 1004.6016 C 1297.2422 975.76731 1289.3598 953.75199 1273.5938 938.55664 L 1284.6367 938.55664 L 1284.6367 786.67188 L 1379.998 645.43164 L 1380.3008 645.43164 L 1380.3008 609.11719 L 1217.9473 609.11719 L 1217.9473 493.54688 L 1369.834 493.54688 L 1369.834 457.23047 L 1217.9473 457.23047 L 1217.9473 362.80859 L 1376.457 362.80859 L 1376.457 351.76562 C 1393.2697 346.49491 1407.2209 338.13446 1418.2988 326.67188 C 1432.7218 311.851 1442.1018 292.05633 1446.4512 267.30078 L 1446.4512 352.30664 L 1489.6035 352.30664 L 1489.6035 217.51172 L 1536.5996 217.51172 C 1553.6894 217.51172 1567.1479 221.00016 1576.9746 227.97852 C 1586.9437 234.95687 1597.1976 249.12793 1607.7363 270.49023 L 1648.5391 352.30664 L 1694.8945 352.30664 L 1651.1016 265.14844 C 1642.2718 247.2041 1633.4431 233.10547 1624.6133 222.85156 C 1615.9259 212.59766 1606.9523 205.90462 1597.6953 202.77148 C 1615.4972 197.64453 1629.0282 188.45752 1638.2852 175.21289 C 1647.6846 161.96826 1652.3828 145.30713 1652.3828 125.22656 C 1652.3828 94.464849 1643.4111 71.465009 1625.4668 56.226562 C 1607.5225 40.988116 1580.3216 33.367188 1543.8633 33.367188 L 1449.2734 33.367188 L 1405.9082 33.367188 L 1405.9082 227.125 C 1405.9082 261.30469 1399.7144 285.94108 1387.3242 301.03711 C 1374.9341 315.99072 1354.9235 323.46875 1327.2949 323.46875 C 1299.5239 323.46875 1279.4429 315.99072 1267.0527 301.03711 C 1254.6626 285.94108 1248.4688 261.30469 1248.4688 227.125 L 1248.4688 33.367188 L 1205.1035 33.367188 L 1205.1035 106.92578 C 1199.081 94.312515 1191.498 82.892785 1182.3496 72.673828 C 1155.5755 42.624188 1119.8297 27.599609 1075.1113 27.599609 C 1050.8907 27.599609 1029.2907 31.988636 1010.3008 40.748047 L 1015.2852 33.367188 L 968.92773 33.367188 L 881.12891 164.5332 L 792.68945 33.367188 L 746.33203 33.367188 L 859.12695 200.42188 L 859.12695 326.49219 L 800.06055 326.49219 L 718.24219 543.5332 L 646.5332 352.30664 L 677.49414 352.30664 L 677.49414 315.99219 L 515.14062 315.99219 L 515.14062 200.42188 L 667.02539 200.42188 L 667.02539 164.10547 L 515.14062 164.10547 L 515.14062 69.683594 L 673.64844 69.683594 L 673.64844 33.367188 L 471.98828 33.367188 L 471.98828 43.355469 C 456.26947 38.188905 440.88157 34.281518 425.83203 31.658203 C 410.30876 28.95231 395.0708 27.599609 380.11719 27.599609 z M 385.03125 62.634766 C 398.56071 62.634766 412.58887 64.55713 427.11523 68.402344 C 441.20015 72.130709 456.16278 77.751212 471.98828 85.228516 L 471.98828 204.82227 C 471.2205 203.98251 470.43549 203.15424 469.625 202.34375 C 454.38655 186.82048 430.67415 175.99691 398.48828 169.87305 L 372.42773 164.5332 C 348.78679 160.11833 332.69336 154.34928 324.14844 147.22852 C 315.74593 139.96533 311.54492 129.28467 311.54492 115.18555 C 311.54492 98.380534 317.88167 85.421221 330.55664 76.306641 C 343.37403 67.192054 361.53272 62.634766 385.03125 62.634766 z M 1075.1113 62.634766 C 1106.4427 62.634766 1131.2239 74.311849 1149.4531 97.667969 C 1167.8247 121.02409 1177.0098 152.85466 1177.0098 193.1582 C 1177.0098 233.31934 1167.8247 265.07747 1149.4531 288.43359 C 1131.2239 311.78971 1106.4427 323.46875 1075.1113 323.46875 C 1043.7799 323.46875 1018.8577 311.78971 1000.3438 288.43359 C 981.97215 265.07747 972.78516 233.31934 972.78516 193.1582 C 972.78516 152.85466 981.97215 121.02409 1000.3438 97.667969 C 1018.8577 74.311849 1043.7799 62.634766 1075.1113 62.634766 z M 1489.6035 68.830078 L 1543.8633 68.830078 C 1564.6559 68.830078 1580.3206 73.600751 1590.8594 83.142578 C 1601.5405 92.541991 1606.8809 106.57015 1606.8809 125.22656 C 1606.8809 143.88298 1601.5405 158.05208 1590.8594 167.73633 C 1580.3206 177.27815 1564.6559 182.04883 1543.8633 182.04883 L 1489.6035 182.04883 L 1489.6035 68.830078 z M 929.32617 160.67969 C 927.96983 170.98793 927.28516 181.81107 927.28516 193.1582 C 927.28516 243.57324 940.67118 283.7334 967.44531 313.64062 C 971.62592 318.28575 976.02519 322.56854 980.63867 326.49219 L 977.26562 326.49219 L 977.26562 630.22266 C 963.73181 637.41923 951.60894 646.9797 940.91016 658.92383 C 920.80744 681.37901 908.25317 709.6165 903.24414 743.63281 L 903.24414 645.43164 L 941.38867 645.43164 L 941.38867 326.49219 L 902.49219 326.49219 L 902.49219 200.42188 L 929.32617 160.67969 z M 281.10156 165.54102 C 283.61922 169.18007 286.50029 172.54808 289.75391 175.64062 C 304.13786 189.31251 327.4235 199.35303 359.60938 205.76172 L 385.88477 210.88867 C 407.81673 215.30355 423.55387 221.92611 433.0957 230.75586 C 442.77994 239.58561 447.62305 251.83236 447.62305 267.49805 C 447.62305 285.44239 440.92806 299.25717 427.54102 308.94141 C 414.15397 318.62565 395.14177 323.46875 370.50391 323.46875 C 354.26856 323.46875 337.74837 320.97673 320.94336 315.99219 C 304.53839 311.12631 287.79253 303.93529 270.70898 294.45508 C 277.63296 277.20363 281.10156 256.54477 281.10156 232.46484 L 281.10156 165.54102 z M 1208.6484 271.27539 C 1213.2265 294.0885 1222.2424 312.49418 1235.6973 326.49219 L 1174.7969 326.49219 L 1174.7969 609.11719 L 1020.418 609.11719 L 1020.418 349.56055 C 1036.8638 355.51635 1055.092 358.50195 1075.1113 358.50195 C 1119.8297 358.50195 1155.5755 343.54785 1182.3496 313.64062 C 1193.3969 301.24185 1202.1594 287.11707 1208.6484 271.27539 z M 864.36133 352.30664 L 898.23828 352.30664 L 898.23828 620.00586 L 864.36133 620.00586 L 864.36133 352.30664 z M 485.5957 355.75977 C 499.12516 355.75977 513.15137 357.68213 527.67773 361.52734 C 541.76277 365.25573 556.72709 370.87611 572.55273 378.35352 L 572.55273 497.94922 C 571.78446 497.10887 571.0005 496.27979 570.18945 495.46875 C 554.95101 479.94548 531.23861 469.12191 499.05273 462.99805 L 472.99023 457.6582 C 449.34928 453.24333 433.25781 447.47429 424.71289 440.35352 C 416.31038 433.09034 412.10938 422.40967 412.10938 408.31055 C 412.10938 391.50553 418.44613 378.54623 431.12109 369.43164 C 443.93847 360.31706 462.09716 355.75977 485.5957 355.75977 z M 614.42188 365.37305 L 696.66602 584.12305 L 740.0332 584.12305 L 822.27734 365.37305 L 822.27734 645.43164 L 860.0918 645.43164 L 860.0918 828.33984 C 860.0918 855.96842 856.17655 875.12353 848.34375 885.80469 C 840.51089 896.48584 827.05242 901.82617 807.96875 901.82617 L 806.2168 901.82617 L 806.2168 619.61719 L 764.3457 619.61719 L 764.3457 886.43359 L 622.92773 619.61719 L 614.42188 619.61719 L 614.42188 365.37305 z M 572.55273 618.07031 L 572.55273 619.61719 L 571.11328 619.61719 C 571.60114 619.10754 572.08099 618.59155 572.55273 618.07031 z M 1141.998 645.43164 L 1145.9062 645.43164 L 1152.8301 655.68555 C 1149.3633 652.02722 1145.7515 648.61004 1141.998 645.43164 z M 1192.2402 645.43164 L 1333.793 645.43164 L 1263.2734 750.7832 L 1192.2402 645.43164 z M 1048.5762 648.88477 C 1079.9076 648.88477 1104.6888 660.56185 1122.918 683.91797 C 1141.2896 707.27408 1150.4746 739.10465 1150.4746 779.4082 C 1150.4746 819.56934 1141.2896 851.32747 1122.918 874.68359 C 1104.6888 898.03971 1079.9076 909.71875 1048.5762 909.71875 C 1017.2448 909.71875 992.32261 898.03971 973.80859 874.68359 C 955.43699 851.32747 946.25195 819.56934 946.25195 779.4082 C 946.25195 739.10465 955.43699 707.27408 973.80859 683.91797 C 992.32261 660.56185 1017.2448 648.88477 1048.5762 648.88477 z M 413.11914 655.93359 L 564.82227 655.93359 L 564.82227 750.35547 L 413.11914 750.35547 L 413.11914 655.93359 z M 606.69141 671.74219 L 732.76758 909.60938 C 723.02228 907.85989 712.76072 906.97461 701.9707 906.97461 C 659.61289 906.97461 625.25848 920.37803 598.89844 947.16797 L 604.71289 938.55664 L 606.69141 938.55664 L 606.69141 935.62695 L 622.14258 912.74219 L 606.69141 912.74219 L 606.69141 671.74219 z M 1179.5039 695.19336 L 1241.2695 786.67188 L 1241.2695 919.91406 C 1226.6573 915.13359 1209.143 912.74219 1188.7227 912.74219 L 1142.6895 912.74219 C 1147.2807 908.81859 1151.658 904.53567 1155.8164 899.89062 C 1182.5905 869.84098 1195.9766 829.68082 1195.9766 779.4082 C 1195.9766 747.13076 1190.4786 719.06465 1179.5039 695.19336 z M 413.11914 786.67188 L 564.82227 786.67188 L 564.82227 902.24219 L 413.11914 902.24219 L 413.11914 786.67188 z M 903.24414 815.18359 C 908.25317 849.19991 920.80744 877.43544 940.91016 899.89062 C 967.82669 929.79785 1003.7153 944.75195 1048.5762 944.75195 C 1048.6404 944.75195 1048.7034 944.75006 1048.7676 944.75 L 1048.7676 1106.5 C 1048.7676 1140.6797 1042.5718 1165.3161 1030.1816 1180.4121 C 1017.7915 1195.3657 997.7829 1202.8438 970.1543 1202.8438 C 942.3833 1202.8438 922.30224 1195.3657 909.91211 1180.4121 C 897.52198 1165.3161 891.32812 1140.6797 891.32812 1106.5 L 891.32812 912.74219 L 880.66602 912.74219 C 880.85654 912.52075 881.05268 912.30441 881.24023 912.08008 C 895.90903 894.7054 903.24414 866.79199 903.24414 828.33984 L 903.24414 815.18359 z M 847.96094 933.24805 L 847.96094 1045.2754 C 843.88439 1007.4286 830.96669 976.3526 809.20898 952.04883 C 804.84336 947.1491 800.23529 942.65744 795.39258 938.55664 L 806.2168 938.55664 L 806.2168 938.14258 L 810.95898 938.14258 C 824.96451 938.14258 837.29676 936.50914 847.96094 933.24805 z M 416.95508 938.55664 L 558.50781 938.55664 L 487.98828 1043.9082 L 416.95508 938.55664 z M 701.9707 942.00977 C 733.30208 942.00977 758.08138 953.68685 776.31055 977.04297 C 794.68216 1000.3991 803.86914 1032.2297 803.86914 1072.5332 C 803.86914 1112.6943 794.68216 1144.4525 776.31055 1167.8086 C 758.08138 1191.1647 733.30208 1202.8438 701.9707 1202.8438 C 670.63932 1202.8438 645.71712 1191.1647 627.20312 1167.8086 C 608.83155 1144.4525 599.64453 1112.6943 599.64453 1072.5332 C 599.64453 1032.2297 608.83155 1000.3991 627.20312 977.04297 C 645.71712 953.68685 670.63932 942.00977 701.9707 942.00977 z M 1134.4609 948.20508 L 1188.7227 948.20508 C 1209.5153 948.20508 1225.18 952.97574 1235.7188 962.51758 C 1246.3999 971.91699 1251.7402 985.94515 1251.7402 1004.6016 C 1251.7402 1023.258 1246.3999 1037.4271 1235.7188 1047.1113 C 1225.18 1056.6532 1209.5153 1061.4238 1188.7227 1061.4238 L 1134.4609 1061.4238 L 1134.4609 948.20508 z M 1134.4609 1096.8867 L 1181.459 1096.8867 C 1198.5489 1096.8867 1212.0073 1100.3752 1221.834 1107.3535 C 1231.8031 1114.3319 1242.057 1128.5029 1252.5957 1149.8652 L 1280.5234 1205.8672 L 1134.4609 1205.8672 L 1134.4609 1096.8867 z M 784.0332 1215.002 L 784.0332 1488.4922 L 639.6543 1488.4922 L 639.6543 1225.9023 C 658.0358 1233.8783 678.8036 1237.877 701.9707 1237.877 C 733.89996 1237.877 761.25208 1230.2488 784.0332 1215.002 z "
       transform="translate(0,-566.92919)"
       id="path4276" />
    <path
       inkscape:connector-curvature="0"
       style="font-style:normal;font-weight:normal;font-size:437.5px;line-height:67.00000167%;font-family:sans-serif;text-align:center;letter-spacing:0px;word-spacing:0px;text-anchor:middle;fill:none;fill-opacity:1;stroke:#ff0000;stroke-width:1;stroke-linecap:butt;stroke-linejoin:miter;stroke-opacity:1;stroke-miterlimit:4;stroke-dasharray:none"
       d="m 1575.0744,-197.67629 c -14.2007,0 -25.3581,3.30402 -33.4728,9.91173 -2.7423,2.249 -5.017,4.78071 -6.8259,7.59378 l 0,-15.15813 -17.6495,0 0,78.85827 c 0,13.91093 -2.5215,23.937798 -7.5643,30.081788 -5.0427,6.08603 -13.1861,9.12954 -24.4307,9.12954 -11.3027,0 -19.4756,-3.04351 -24.5182,-9.12954 -5.0428,-6.14399 -7.5644,-16.170858 -7.5644,-30.081788 l 0,-78.85827 -17.6494,0 0,81.03155 c 0,16.924968 4.1732,29.705338 12.5199,38.341708 8.4044,8.63637 20.8087,12.95465 37.2121,12.95465 16.3452,0 28.6914,-4.31828 37.0379,-12.95465 3.254,-3.3437 5.8748,-7.3113 7.8689,-11.89742 l 0,16.59296 c 7.4192,2.72422 14.5778,4.78138 21.4753,6.17247 6.9555,1.3911 13.5047,2.08664 19.6486,2.08664 2.1254,0 4.1821,-0.0564 6.1733,-0.16692 -4.5924,5.88936 -6.8903,13.16519 -6.8903,21.82982 0,9.91154 2.9272,17.64939 8.7813,23.21376 5.8543,5.56438 15.3314,9.65081 28.4309,12.2591 l 10.6939,2.08665 c 8.9262,1.79683 15.3311,4.49217 19.2145,8.08583 3.9414,3.59365 5.9118,8.578 5.9118,14.95385 0,7.30323 -2.724,12.92577 -8.1725,16.8672 -5.4484,3.94144 -13.1863,5.91255 -23.2138,5.91255 -6.6076,0 -13.3313,-1.01424 -20.1709,-3.04292 -6.8395,-2.02867 -13.8236,-5.04272 -20.9529,-9.04211 l 0,13.31555 -0.024,0 0,129.806462 0.2662,0 38.8123,57.48397 0,61.8162 17.6494,0 0,-61.8162 24.5206,-36.31706 c -4.1919,9.5154 -6.2902,20.63463 -6.2902,33.3608 0,20.51854 5.4489,36.86356 16.3459,49.03558 1.7014,1.89052 3.4911,3.63362 5.3687,5.23055 l -4.4746,0 0,129.80647 80.7709,0 13.1153,0 0,-129.80647 -12.6574,0 c 1.8686,-1.59687 3.6493,-3.34003 5.3417,-5.23055 8.8554,-9.93855 14.1128,-22.5949 15.7719,-37.9689 l 0,4.93084 c 0,16.87796 4.1513,29.63328 12.4515,38.26861 l -3.0502,0 0,129.80647 17.5629,0 0,-61.99028 51.4704,0 0,-14.78056 -51.4704,0 0,-38.25506 57.0348,0 0,-12.1272 c 0.9669,-0.81312 1.8927,-1.67145 2.7711,-2.58022 7.0387,-7.23292 11.1279,-17.37403 12.2718,-30.4205 l 0,30.34735 -0.071,0 0,129.80647 83.6389,0 0,-14.77973 -66.0769,0 0,-47.03647 61.817,0 0,-14.78055 -61.817,0 0,-38.42915 64.5125,0 0,-4.76395 0.2441,0.48971 18.8671,0 -17.8235,-35.47289 c -3.5936,-7.3032 -7.1876,-13.04126 -10.7814,-17.21456 -3.5356,-4.1733 -7.187,-6.89732 -10.9546,-8.1725 7.2454,-2.08665 12.7515,-5.82568 16.5191,-11.21616 3.8255,-5.39049 5.7385,-12.17149 5.7385,-20.34416 0,-11.73537 -3.2081,-20.69547 -9.6248,-26.8799 l 4.4944,0 0,-61.81619 38.8114,-57.483952 0.1233,0 0,-14.77976 -66.0769,0 0,-47.03643 61.817,0 0,-14.78056 -61.817,0 0,-38.42915 64.5124,0 0,-4.49443 c 6.8428,-2.14514 12.5208,-5.5478 17.0295,-10.213 5.87,-6.03201 9.6876,-14.08832 11.4578,-24.163678 l 0,34.596868 17.5628,0 0,-54.860738 19.127,0 c 6.9556,0 12.433,1.41978 16.4325,4.25993 4.0573,2.84015 8.2306,8.60769 12.5198,17.302018 l 16.6064,33.29879 18.8664,0 -17.8234,-35.472858 c -3.5937,-7.30325 -7.187,-13.04131 -10.7806,-17.21459 -3.5356,-4.17328 -7.1879,-6.8973 -10.9555,-8.17247 7.2453,-2.08664 12.7523,-5.8257 16.5199,-11.21619 3.8255,-5.39048 5.7376,-12.17147 5.7376,-20.34415 0,-12.51983 -3.6514,-21.88061 -10.9546,-28.08259 -7.3032,-6.20194 -18.3739,-9.3036 -33.2121,-9.3036 l -38.4976,0 -17.6494,0 0,78.85827 c 0,13.91093 -2.5208,23.937798 -7.5636,30.081788 -5.0426,6.08603 -13.1869,9.12954 -24.4315,9.12954 -11.3026,0 -19.4755,-3.04351 -24.5183,-9.12954 -5.0426,-6.14399 -7.5635,-16.170858 -7.5635,-30.081788 l 0,-78.85827 -17.6494,0 0,29.93787 c -2.4511,-5.1335 -5.5373,-9.78129 -9.2607,-13.94032 -10.8969,-12.23001 -25.4452,-18.34493 -43.6453,-18.34493 -9.8577,0 -18.6488,1.78629 -26.3775,5.35132 l 2.0286,-3.00394 -18.8672,0 -35.7336,53.38377 -35.9944,-53.38377 -18.8672,0 45.9069,67.99026 0,51.309858 -24.0397,0 -33.2995,88.33442 -29.1852,-77.82809 12.601,0 0,-14.77976 -66.077,0 0,-47.036428 61.8162,0 0,-14.78057 -61.8162,0 0,-38.42913 64.5117,0 0,-14.78056 -82.0744,0 0,4.06513 c -6.3975,-2.10273 -12.6604,-3.69302 -18.7854,-4.76069 -6.3179,-1.10128 -12.5196,-1.65182 -18.6056,-1.65182 z m 2,14.25908 c 5.5065,0 11.2158,0.7824 17.128,2.34738 5.7325,1.51743 11.8222,3.80495 18.2631,6.84816 l 0,48.67395 c -0.3125,-0.34178 -0.632,-0.67888 -0.9619,-1.00874 -6.2019,-6.31789 -15.8528,-10.72301 -28.9522,-13.21539 l -10.6065,-2.17329 c -9.6217,-1.79682 -16.1717,-4.14479 -19.6494,-7.0429 -3.4198,-2.95608 -5.1296,-7.30306 -5.1296,-13.04131 0,-6.83954 2.5791,-12.11389 7.7377,-15.82348 5.2166,-3.70959 12.6071,-5.56438 22.1708,-5.56438 z m 280.8586,0 c 12.7517,0 22.8375,4.75251 30.2566,14.2583 7.4772,9.50584 11.2155,22.46068 11.2155,38.86398 0,16.34535 -3.7383,29.27072 -11.2155,38.776518 -7.4191,9.5058 -17.5049,14.2591 -30.2566,14.2591 -12.7517,0 -22.8949,-4.7533 -30.43,-14.2591 -7.4771,-9.505798 -11.2163,-22.431168 -11.2163,-38.776518 0,-16.4033 3.7392,-29.35814 11.2163,-38.86398 7.5351,-9.50579 17.6783,-14.2583 30.43,-14.2583 z m 168.6959,2.52145 22.0833,0 c 8.4625,0 14.838,1.94164 19.1273,5.8251 4.347,3.82554 6.5206,9.53489 6.5206,17.12794 0,7.59306 -2.1736,13.35981 -6.5206,17.30124 -4.2893,3.88346 -10.6648,5.8251 -19.1273,5.8251 l -22.0833,0 0,-46.07938 z m -228.0297,37.38226 c -0.552,4.1954 -0.8307,8.60035 -0.8307,13.21857 0,20.51862 5.4482,36.863568 16.3451,49.035628 1.7014,1.89054 3.4919,3.63362 5.3696,5.23051 l -1.3729,0 0,123.61651 c -5.5081,2.92896 -10.4421,6.82002 -14.7964,11.68121 -8.1818,9.139122 -13.2912,20.631612 -15.3299,34.476042 l 0,-39.967292 15.5246,0 0,-129.80647 -15.8306,0 0,-51.309858 10.9212,-16.17485 z m -263.8235,1.97854 c 1.0247,1.48107 2.1972,2.85184 3.5215,4.11048 5.8541,5.56438 15.3312,9.65081 28.4307,12.25911 l 10.6939,2.08664 c 8.9262,1.79683 15.3311,4.49217 19.2146,8.08582 3.9415,3.59366 5.9126,8.57801 5.9126,14.95386 0,7.303238 -2.7249,12.925778 -8.1734,16.867198 -5.4485,3.94143 -13.1863,5.91254 -23.2137,5.91254 -6.6077,0 -13.3313,-1.01423 -20.1708,-3.04291 -6.6768,-1.98039 -13.4923,-4.90709 -20.4451,-8.76547 2.8179,-7.02124 4.2297,-15.429278 4.2297,-25.229668 l 0,-27.2376 z m 377.5061,43.033258 c 1.8632,9.28481 5.5326,16.77581 11.0087,22.47291 l -24.786,0 0,115.02671 -62.8314,0 0,-105.63802 c 6.6934,2.42398 14.1121,3.6391 22.2599,3.6391 18.2001,0 32.7484,-6.08623 43.6453,-18.2583 4.4962,-5.04622 8.0625,-10.79492 10.7035,-17.2424 z m -140.1229,32.97924 13.7877,0 0,108.952 -13.7877,0 0,-108.952 z m -154.1553,1.40541 c 5.5064,0 11.2149,0.78239 17.1272,2.34736 5.7324,1.51744 11.8229,3.8049 18.2638,6.84816 l 0,48.67474 c -0.3127,-0.34202 -0.6317,-0.67944 -0.9619,-1.00954 -6.2019,-6.31787 -15.8527,-10.723 -28.9521,-13.21538 l -10.6074,-2.17329 c -9.6217,-1.79682 -16.1708,-4.14478 -19.6485,-7.0429 -3.4198,-2.95606 -5.1295,-7.30303 -5.1295,-13.04129 0,-6.83955 2.5789,-12.1139 7.7376,-15.82349 5.2165,-3.70958 12.607,-5.56437 22.1708,-5.56437 z m 52.4315,3.91255 33.4728,89.02995 17.6502,0 33.4729,-89.02995 0,113.98218 15.3903,0 0,74.442562 c 0,11.24467 -1.5935,19.04069 -4.7814,23.38785 -3.1879,4.34717 -8.6654,6.52065 -16.4324,6.52065 l -0.713,0 0,-114.857382 -17.0413,0 0,108.592702 -57.5563,-108.592702 -3.4618,0 0,-103.47586 z m -17.0405,102.84628 0,0.62958 -0.5859,0 c 0.1986,-0.20743 0.3939,-0.41744 0.5859,-0.62958 z m 231.7609,11.1359 1.5906,0 2.818,4.17329 c -1.4111,-1.48893 -2.881,-2.8797 -4.4086,-4.17329 z m 20.4482,0 57.6112,0 -28.701,42.877472 -28.9102,-42.877472 z m -58.4704,1.40541 c 12.7517,0 22.8375,4.75251 30.2568,14.258302 7.477,9.5058 11.2152,22.46066 11.2152,38.86396 0,16.34535 -3.7382,29.27073 -11.2152,38.77652 -7.4193,9.50581 -17.5051,14.25911 -30.2568,14.25911 -12.7517,0 -22.8949,-4.7533 -30.43,-14.25911 -7.4771,-9.50579 -11.2153,-22.43117 -11.2153,-38.77652 0,-16.4033 3.7382,-29.35816 11.2153,-38.86396 7.5351,-9.505792 17.6783,-14.258302 30.43,-14.258302 z m -258.6272,2.86882 61.7422,0 0,38.429152 -61.7422,0 0,-38.429152 z m 78.7827,6.434012 51.3123,96.81054 c -3.9662,-0.71203 -8.1427,-1.07232 -12.5342,-1.07232 -17.2393,0 -31.2214,5.4551 -41.9497,16.35845 l 2.3664,-3.50477 0.8052,0 0,-1.19236 6.2886,-9.31396 -6.2886,0 0,-98.08558 z m 233.1313,9.54449 25.1382,37.23122 0,54.22877 c -5.947,-1.94561 -13.0752,-2.9189 -21.3862,-2.9189 l -18.7352,0 c 1.8685,-1.59688 3.6501,-3.34 5.3425,-5.23052 10.8969,-12.23002 16.345,-28.57497 16.345,-49.03563 0,-13.13672 -2.2376,-24.55946 -6.7043,-34.27494 z m -311.914,37.23122 61.7422,0 0,47.03643 -61.7422,0 0,-47.03643 z m 199.4779,11.6041 c 2.0387,13.84444 7.1481,25.33613 15.3299,34.47525 10.9548,12.17207 25.5613,18.25831 43.8194,18.25831 0.026,0 0.052,-7.6e-4 0.077,-7.6e-4 l 0,65.83132 c 0,13.91094 -2.5216,23.93785 -7.5644,30.08179 -5.0427,6.08601 -13.1861,9.12959 -24.4307,9.12959 -11.3026,0 -19.4756,-3.04358 -24.5183,-9.12959 -5.0427,-6.14394 -7.5635,-16.17085 -7.5635,-30.08179 l 0,-78.85831 -4.3395,0 c 0.077,-0.0901 0.1575,-0.17817 0.2337,-0.26947 5.9702,-7.0714 8.9555,-18.43198 8.9555,-34.08179 l 0,-5.35451 z m -22.4999,48.05153 0,45.59448 c -1.6591,-15.40347 -6.9166,-28.05118 -15.7718,-37.94267 -1.7769,-1.99416 -3.6522,-3.82224 -5.6232,-5.49125 l 4.4054,0 0,-0.16851 1.9301,0 c 5.7001,0 10.7192,-0.6648 15.0595,-1.99205 z m -175.4168,2.16056 57.6111,0 -28.701,42.8775 -28.9101,-42.8775 z m 115.9996,1.40541 c 12.7517,0 22.8368,4.75251 30.2559,14.25831 7.4771,9.50581 11.2162,22.46066 11.2162,38.86399 0,16.34532 -3.7391,29.27072 -11.2162,38.7765 -7.4191,9.50578 -17.5042,14.25912 -30.2559,14.25912 -12.7516,0 -22.8948,-4.75334 -30.4299,-14.25912 -7.4772,-9.50578 -11.2162,-22.43118 -11.2162,-38.7765 0,-16.40333 3.739,-29.35818 11.2162,-38.86399 7.5351,-9.5058 17.6783,-14.25831 30.4299,-14.25831 z m 176.0209,2.52146 22.0843,0 c 8.4625,0 14.8379,1.94163 19.1272,5.8251 4.3471,3.8255 6.5206,9.53487 6.5206,17.12793 0,7.59307 -2.1735,13.35984 -6.5206,17.30119 -4.2893,3.8835 -10.6647,5.82514 -19.1272,5.82514 l -22.0843,0 0,-46.07936 z m 0,60.51258 19.128,0 c 6.9556,0 12.4331,1.41974 16.4324,4.25992 4.0574,2.84011 8.2306,8.60762 12.5198,17.30194 l 11.3665,22.79253 -59.4467,0 0,-44.35439 z m -142.6219,48.07221 0,111.30892 -58.7614,0 0,-106.87255 c 7.4812,3.24613 15.9336,4.87359 25.3624,4.87359 12.995,0 24.1273,-3.10461 33.399,-9.30996 z"
       id="path4276-4" />
    <path
       inkscape:connector-curvature="0"
       style="font-style:normal;font-weight:normal;font-size:437.5px;line-height:67.00000167%;font-family:sans-serif;text-align:center;letter-spacing:0px;word-spacing:0px;text-anchor:middle;fill:none;fill-opacity:1;stroke:#ff0000;stroke-width:1;stroke-linecap:butt;stroke-linejoin:miter;stroke-opacity:1;stroke-miterlimit:4;stroke-dasharray:none"
       d="m 1565.9476,419.32955 c -14.2007,0 -25.3581,3.30402 -33.4728,9.91173 -2.7423,2.249 -5.017,4.78071 -6.8259,7.59378 l 0,-15.15813 -17.6495,0 0,78.85826 c 0,13.91093 -2.5215,23.93781 -7.5643,30.0818 -5.0427,6.08603 -13.1861,9.12954 -24.4307,9.12954 -11.3027,0 -19.4756,-3.04351 -24.5182,-9.12954 -5.0428,-6.14399 -7.5644,-16.17087 -7.5644,-30.0818 l 0,-78.85826 -17.6494,0 0,81.03155 c 0,16.92497 4.1732,29.70534 12.5199,38.34171 8.4044,8.63637 20.8087,12.95465 37.2121,12.95465 16.3452,0 28.6914,-4.31828 37.0379,-12.95465 3.254,-3.3437 5.8748,-7.3113 7.8689,-11.89742 l 0,16.59296 c 7.4192,2.72422 14.5778,4.78138 21.4753,6.17247 6.9555,1.3911 13.5047,2.08664 19.6486,2.08664 2.1254,0 4.1821,-0.0564 6.1733,-0.16692 -4.5924,5.88936 -6.8903,13.16519 -6.8903,21.82981 0,9.91154 2.9272,17.6494 8.7813,23.21377 5.8543,5.56438 15.3314,9.65081 28.4309,12.2591 l 10.6939,2.08665 c 8.9262,1.79683 15.3311,4.49217 19.2145,8.08583 3.9414,3.59365 5.9118,8.578 5.9118,14.95385 0,7.30323 -2.724,12.92577 -8.1725,16.8672 -5.4484,3.94144 -13.1863,5.91255 -23.2138,5.91255 -6.6076,0 -13.3313,-1.01424 -20.1709,-3.04292 -6.8395,-2.02867 -13.8236,-5.04272 -20.9529,-9.04211 l 0,13.31555 -0.024,0 0,129.80646 0.2662,0 38.8123,57.48397 0,61.81617 17.6494,0 0,-61.81617 24.5206,-36.31706 c -4.1919,9.5154 -6.2902,20.63463 -6.2902,33.3608 0,20.51854 5.4489,36.86356 16.3459,49.03558 1.7014,1.89052 3.4911,3.63362 5.3687,5.23055 l -4.4746,0 0,129.8065 80.7709,0 13.1153,0 0,-129.8065 -12.6574,0 c 1.8686,-1.59687 3.6493,-3.34003 5.3417,-5.23055 8.8554,-9.93855 14.1128,-22.5949 15.7719,-37.9689 l 0,4.93084 c 0,16.87796 4.1513,29.63328 12.4515,38.26861 l -3.0502,0 0,129.8065 17.5629,0 0,-61.9903 51.4704,0 0,-14.7806 -51.4704,0 0,-38.255 57.0348,0 0,-12.12723 c 0.9669,-0.81312 1.8927,-1.67145 2.7711,-2.58022 7.0387,-7.23292 11.1279,-17.37403 12.2718,-30.4205 l 0,30.34735 -0.071,0 0,129.8065 83.6389,0 0,-14.7798 -66.0769,0 0,-47.0364 61.817,0 0,-14.7806 -61.817,0 0,-38.4291 64.5125,0 0,-4.764 0.2441,0.4897 18.8671,0 -17.8235,-35.47286 c -3.5936,-7.3032 -7.1876,-13.04126 -10.7814,-17.21456 -3.5356,-4.1733 -7.187,-6.89732 -10.9546,-8.1725 7.2454,-2.08665 12.7515,-5.82568 16.5191,-11.21616 3.8255,-5.39049 5.7385,-12.17149 5.7385,-20.34416 0,-11.73537 -3.2081,-20.69547 -9.6248,-26.8799 l 4.4944,0 0,-61.81619 38.8114,-57.48395 0.1233,0 0,-14.77976 -66.0769,0 0,-47.03643 61.817,0 0,-14.78056 -61.817,0 0,-38.42915 64.5124,0 0,-4.49443 c 6.8428,-2.14514 12.5208,-5.5478 17.0295,-10.213 5.87,-6.03201 9.6876,-14.08832 11.4578,-24.16369 l 0,34.59688 17.5628,0 0,-54.86074 19.127,0 c 6.9556,0 12.433,1.41978 16.4325,4.25993 4.0573,2.84015 8.2306,8.60768 12.5198,17.30201 l 16.6064,33.2988 18.8664,0 -17.8234,-35.47287 c -3.5937,-7.30324 -7.187,-13.0413 -10.7806,-17.21458 -3.5356,-4.17328 -7.1879,-6.89731 -10.9555,-8.17247 7.2453,-2.08665 12.7523,-5.82571 16.5199,-11.21619 3.8255,-5.39048 5.7376,-12.17147 5.7376,-20.34415 0,-12.51983 -3.6514,-21.88061 -10.9546,-28.08259 -7.3032,-6.20194 -18.3739,-9.3036 -33.2121,-9.3036 l -38.4976,0 -17.6494,0 0,78.85826 c 0,13.91093 -2.5208,23.93781 -7.5636,30.0818 -5.0426,6.08603 -13.1869,9.12954 -24.4315,9.12954 -11.3026,0 -19.4755,-3.04351 -24.5183,-9.12954 -5.0426,-6.14399 -7.5635,-16.17087 -7.5635,-30.0818 l 0,-78.85826 -17.6494,0 0,29.93787 c -2.4511,-5.1335 -5.5373,-9.78129 -9.2607,-13.94032 -10.8969,-12.23001 -25.4452,-18.34493 -43.6453,-18.34493 -9.8577,0 -18.6488,1.78629 -26.3775,5.35132 l 2.0286,-3.00394 -18.8672,0 -35.7336,53.38377 -35.9944,-53.38377 -18.8672,0 45.9069,67.99025 0,51.30987 -24.0397,0 -33.2995,88.33442 -29.1852,-77.82809 12.601,0 0,-14.77976 -66.077,0 0,-47.03644 61.8162,0 0,-14.78056 -61.8162,0 0,-38.42913 64.5117,0 0,-14.78056 -82.0744,0 0,4.06513 c -6.3975,-2.10273 -12.6604,-3.69302 -18.7854,-4.76069 -6.3179,-1.10128 -12.5196,-1.65182 -18.6056,-1.65182 z m 2,14.25908 c 5.5065,0 11.2158,0.7824 17.128,2.34738 5.7325,1.51743 11.8222,3.80495 18.2631,6.84816 l 0,48.67395 c -0.3125,-0.34178 -0.632,-0.67889 -0.9619,-1.00875 -6.2019,-6.31788 -15.8528,-10.72301 -28.9522,-13.21538 l -10.6065,-2.17329 c -9.6217,-1.79682 -16.1717,-4.14479 -19.6494,-7.0429 -3.4198,-2.95608 -5.1296,-7.30306 -5.1296,-13.04131 0,-6.83954 2.5791,-12.11389 7.7377,-15.82348 5.2166,-3.70959 12.6071,-5.56438 22.1708,-5.56438 z m 280.8586,0 c 12.7517,0 22.8375,4.75251 30.2566,14.2583 7.4772,9.50584 11.2155,22.46068 11.2155,38.86397 0,16.34535 -3.7383,29.27072 -11.2155,38.77653 -7.4191,9.5058 -17.5049,14.2591 -30.2566,14.2591 -12.7517,0 -22.8949,-4.7533 -30.43,-14.2591 -7.4771,-9.50581 -11.2163,-22.43118 -11.2163,-38.77653 0,-16.40329 3.7392,-29.35813 11.2163,-38.86397 7.5351,-9.50579 17.6783,-14.2583 30.43,-14.2583 z m 168.6959,2.52145 22.0833,0 c 8.4625,0 14.838,1.94164 19.1273,5.8251 4.347,3.82554 6.5206,9.53489 6.5206,17.12794 0,7.59306 -2.1736,13.35981 -6.5206,17.30124 -4.2893,3.88346 -10.6648,5.8251 -19.1273,5.8251 l -22.0833,0 0,-46.07938 z m -228.0297,37.38226 c -0.552,4.1954 -0.8307,8.60035 -0.8307,13.21856 0,20.51863 5.4482,36.86358 16.3451,49.03564 1.7014,1.89054 3.4919,3.63362 5.3696,5.23051 l -1.3729,0 0,123.61651 c -5.5081,2.92896 -10.4421,6.82002 -14.7964,11.68121 -8.1818,9.13912 -13.2912,20.63161 -15.3299,34.47604 l 0,-39.96729 15.5246,0 0,-129.80647 -15.8306,0 0,-51.30987 10.9212,-16.17484 z m -263.8235,1.97854 c 1.0247,1.48107 2.1972,2.85184 3.5215,4.11048 5.8541,5.56437 15.3312,9.6508 28.4307,12.2591 l 10.6939,2.08664 c 8.9262,1.79683 15.3311,4.49217 19.2146,8.08583 3.9415,3.59365 5.9126,8.57801 5.9126,14.95385 0,7.30325 -2.7249,12.92579 -8.1734,16.86721 -5.4485,3.94143 -13.1863,5.91254 -23.2137,5.91254 -6.6077,0 -13.3313,-1.01423 -20.1708,-3.04291 -6.6768,-1.98039 -13.4923,-4.90709 -20.4451,-8.76547 2.8179,-7.02124 4.2297,-15.42929 4.2297,-25.22967 l 0,-27.2376 z m 377.5061,43.03325 c 1.8632,9.28482 5.5326,16.77582 11.0087,22.47292 l -24.786,0 0,115.02671 -62.8314,0 0,-105.63802 c 6.6934,2.42398 14.1121,3.6391 22.2599,3.6391 18.2001,0 32.7484,-6.08623 43.6453,-18.2583 4.4962,-5.04622 8.0625,-10.79492 10.7035,-17.24241 z m -140.1229,32.97925 13.7877,0 0,108.952 -13.7877,0 0,-108.952 z m -154.1553,1.40541 c 5.5064,0 11.2149,0.78239 17.1272,2.34736 5.7324,1.51744 11.8229,3.8049 18.2638,6.84816 l 0,48.67474 c -0.3127,-0.34202 -0.6317,-0.67944 -0.9619,-1.00954 -6.2019,-6.31787 -15.8527,-10.723 -28.9521,-13.21538 l -10.6074,-2.17329 c -9.6217,-1.79682 -16.1708,-4.14478 -19.6485,-7.04291 -3.4198,-2.95606 -5.1295,-7.30303 -5.1295,-13.04129 0,-6.83954 2.5789,-12.11389 7.7376,-15.82348 5.2165,-3.70958 12.607,-5.56437 22.1708,-5.56437 z m 52.4315,3.91255 33.4728,89.02995 17.6502,0 33.4729,-89.02995 0,113.98218 15.3903,0 0,74.44256 c 0,11.24467 -1.5935,19.04069 -4.7814,23.38785 -3.1879,4.34717 -8.6654,6.52065 -16.4324,6.52065 l -0.713,0 0,-114.85738 -17.0413,0 0,108.5927 -57.5563,-108.5927 -3.4618,0 0,-103.47586 z m -17.0405,102.84628 0,0.62958 -0.5859,0 c 0.1986,-0.20743 0.3939,-0.41744 0.5859,-0.62958 z m 231.7609,11.1359 1.5906,0 2.818,4.17329 c -1.4111,-1.48893 -2.881,-2.8797 -4.4086,-4.17329 z m 20.4482,0 57.6112,0 -28.701,42.87747 -28.9102,-42.87747 z m -58.4704,1.40541 c 12.7517,0 22.8375,4.75251 30.2568,14.2583 7.477,9.5058 11.2152,22.46066 11.2152,38.86396 0,16.34535 -3.7382,29.27073 -11.2152,38.77652 -7.4193,9.50581 -17.5051,14.25911 -30.2568,14.25911 -12.7517,0 -22.8949,-4.7533 -30.43,-14.25911 -7.4771,-9.50579 -11.2153,-22.43117 -11.2153,-38.77652 0,-16.4033 3.7382,-29.35816 11.2153,-38.86396 7.5351,-9.50579 17.6783,-14.2583 30.43,-14.2583 z m -258.6272,2.86882 61.7422,0 0,38.42915 -61.7422,0 0,-38.42915 z m 78.7827,6.43401 51.3123,96.81054 c -3.9662,-0.71203 -8.1427,-1.07232 -12.5342,-1.07232 -17.2393,0 -31.2214,5.4551 -41.9497,16.35845 l 2.3664,-3.50477 0.8052,0 0,-1.19236 6.2886,-9.31396 -6.2886,0 0,-98.08558 z m 233.1313,9.54449 25.1382,37.23122 0,54.22877 c -5.947,-1.94561 -13.0752,-2.9189 -21.3862,-2.9189 l -18.7352,0 c 1.8685,-1.59688 3.6501,-3.34 5.3425,-5.23052 10.8969,-12.23002 16.345,-28.57497 16.345,-49.03563 0,-13.13672 -2.2376,-24.55946 -6.7043,-34.27494 z m -311.914,37.23122 61.7422,0 0,47.03643 -61.7422,0 0,-47.03643 z m 199.4779,11.6041 c 2.0387,13.84444 7.1481,25.33613 15.3299,34.47525 10.9548,12.17207 25.5613,18.25831 43.8194,18.25831 0.026,0 0.052,-7.6e-4 0.077,-7.6e-4 l 0,65.83132 c 0,13.91094 -2.5216,23.93785 -7.5644,30.08179 -5.0427,6.08601 -13.1861,9.12959 -24.4307,9.12959 -11.3026,0 -19.4756,-3.04358 -24.5183,-9.12959 -5.0427,-6.14394 -7.5635,-16.17085 -7.5635,-30.08179 l 0,-78.85831 -4.3395,0 c 0.077,-0.0901 0.1575,-0.17817 0.2337,-0.26947 5.9702,-7.0714 8.9555,-18.43198 8.9555,-34.08179 l 0,-5.35451 z m -22.4999,48.05153 0,45.59448 c -1.6591,-15.40347 -6.9166,-28.05118 -15.7718,-37.94267 -1.7769,-1.99416 -3.6522,-3.82224 -5.6232,-5.49125 l 4.4054,0 0,-0.16851 1.9301,0 c 5.7001,0 10.7192,-0.6648 15.0595,-1.99205 z m -175.4168,2.16056 57.6111,0 -28.701,42.8775 -28.9101,-42.8775 z m 115.9996,1.40541 c 12.7517,0 22.8368,4.75251 30.2559,14.25831 7.4771,9.50581 11.2162,22.46066 11.2162,38.86399 0,16.34532 -3.7391,29.27072 -11.2162,38.7765 -7.4191,9.50578 -17.5042,14.25912 -30.2559,14.25912 -12.7516,0 -22.8948,-4.75334 -30.4299,-14.25912 -7.4772,-9.50578 -11.2162,-22.43118 -11.2162,-38.7765 0,-16.40333 3.739,-29.35818 11.2162,-38.86399 7.5351,-9.5058 17.6783,-14.25831 30.4299,-14.25831 z m 176.0209,2.52146 22.0843,0 c 8.4625,0 14.8379,1.94163 19.1272,5.8251 4.3471,3.8255 6.5206,9.53487 6.5206,17.12793 0,7.59307 -2.1735,13.35984 -6.5206,17.30119 -4.2893,3.8835 -10.6647,5.82514 -19.1272,5.82514 l -22.0843,0 0,-46.07936 z m 0,60.51258 19.128,0 c 6.9556,0 12.4331,1.41974 16.4324,4.25992 4.0574,2.84011 8.2306,8.60762 12.5198,17.30194 l 11.3665,22.79253 -59.4467,0 0,-44.35439 z m -142.6219,48.07221 0,111.30888 -58.7614,0 0,-106.8725 c 7.4812,3.2461 15.9336,4.8736 25.3624,4.8736 12.995,0 24.1273,-3.1046 33.399,-9.30998 z"
       id="path4276-4-9" />
  </g>
</svg>
