<?xml version="1.0" encoding="UTF-8" standalone="no"?>
<!-- Created with Inkscape (http://www.inkscape.org/) -->

<svg
   xmlns:osb="http://www.openswatchbook.org/uri/2009/osb"
   xmlns:dc="http://purl.org/dc/elements/1.1/"
   xmlns:cc="http://creativecommons.org/ns#"
   xmlns:rdf="http://www.w3.org/1999/02/22-rdf-syntax-ns#"
   xmlns:svg="http://www.w3.org/2000/svg"
   xmlns="http://www.w3.org/2000/svg"
   xmlns:sodipodi="http://sodipodi.sourceforge.net/DTD/sodipodi-0.dtd"
   xmlns:inkscape="http://www.inkscape.org/namespaces/inkscape"
   width="610mm"
   height="457mm"
   viewBox="0 0 2161.4173 1619.2913"
   id="svg2"
   version="1.1"
   inkscape:version="0.91 r13725"
   sodipodi:docname="Smile_Schablone.svg">
  <defs
     id="defs4">
    <linearGradient
       id="linearGradient4168"
       osb:paint="solid">
      <stop
         style="stop-color:#000000;stop-opacity:1;"
         offset="0"
         id="stop4170" />
    </linearGradient>
  </defs>
  <sodipodi:namedview
     id="base"
     pagecolor="#ffffff"
     bordercolor="#666666"
     borderopacity="1.0"
     inkscape:pageopacity="0.0"
     inkscape:pageshadow="2"
     inkscape:zoom="0.35"
     inkscape:cx="30.128005"
     inkscape:cy="714.83471"
     inkscape:document-units="px"
     inkscape:current-layer="layer1"
     showgrid="false"
     inkscape:window-width="2560"
     inkscape:window-height="1311"
     inkscape:window-x="0"
     inkscape:window-y="55"
     inkscape:window-maximized="1" />
  <metadata
     id="metadata7">
    <rdf:RDF>
      <cc:Work
         rdf:about="">
        <dc:format>image/svg+xml</dc:format>
        <dc:type
           rdf:resource="http://purl.org/dc/dcmitype/StillImage" />
        <dc:title></dc:title>
      </cc:Work>
    </rdf:RDF>
  </metadata>
  <g
     inkscape:label="Ebene 1"
     inkscape:groupmode="layer"
     id="layer1"
     transform="translate(0,566.92913)">
    <path
       id="path4324"
       style="font-style:normal;font-weight:normal;font-size:437.5px;line-height:67.00000167%;font-family:sans-serif;text-align:center;letter-spacing:0px;word-spacing:0px;text-anchor:middle;fill:#000000;fill-opacity:1;stroke:none;stroke-width:1px;stroke-linecap:butt;stroke-linejoin:miter;stroke-opacity:1"
       d="m 1091.136,638.9389 201.6601,0 0,36.31592 -158.5083,0 0,94.42139 151.886,0 0,36.31592 -151.886,0 0,115.57006 162.3536,0 0,36.31592 -205.5054,0 0,-318.93921 z m -220.0752,0 183.2886,0 0,36.31592 -140.1368,0 0,93.99414 126.4649,0 0,36.31592 -126.4649,0 0,152.31323 -43.1518,0 0,-318.93921 z m -87.02833,0 43.15186,0 0,318.93921 -43.15186,0 0,-318.93921 z m -187.53027,0 43.15185,0 0,282.62329 155.30396,0 0,36.31592 -198.45581,0 0,-318.93921 z m 646.0527,-123.72193 q 13.8855,4.69971 26.9165,20.08057 13.2447,15.38086 26.4893,42.29736 l 43.7927,87.1582 -46.3562,0 -40.802,-81.81762 q -15.8081,-32.04346 -30.7617,-42.51099 -14.74,-10.46753 -40.3748,-10.46753 l -46.997,0 0,134.79614 -43.1519,0 0,-318.9392 97.4121,0 q 54.6875,0 81.604,22.85766 26.9165,22.85767 26.9165,69.00025 0,30.12084 -14.0991,49.98779 -13.8855,19.86694 -40.5884,27.55737 z m -108.0932,-133.94165 0,113.22022 54.2602,0 q 31.189,0 46.9971,-14.31275 16.0217,-14.52637 16.0217,-42.51098 0,-27.98462 -16.0217,-42.08374 -15.8081,-14.31275 -46.9971,-14.31275 l -54.2602,0 z m -286.4998,-35.46142 43.3655,0 0,193.7561 q 0,51.26953 18.5852,73.91357 18.5852,22.43042 60.2417,22.43042 41.4429,0 60.0281,-22.43042 18.5852,-22.64404 18.5852,-73.91357 l 0,-193.7561 43.3655,0 0,199.09667 q 0,62.37793 -30.9754,94.20777 -30.7617,31.82983 -91.0034,31.82983 -60.4553,0 -91.4307,-31.82983 -30.7617,-31.82984 -30.7617,-94.20777 l 0,-199.09667 z m -145.99144,29.26635 q -46.99707,0 -74.76807,35.03418 -27.55737,35.03418 -27.55737,95.4895 0,60.2417 27.55737,95.27588 27.771,35.03418 74.76807,35.03418 46.99707,0 74.34082,-35.03418 27.55742,-35.03418 27.55742,-95.27588 0,-60.45532 -27.55742,-95.4895 -27.34375,-35.03418 -74.34082,-35.03418 z m 0,-35.03418 q 67.07764,0 107.23874,45.07447 40.1612,44.86084 40.1612,120.48339 0,75.40894 -40.1612,120.4834 -40.1611,44.86084 -107.23874,44.86084 -67.29126,0 -107.66602,-44.86084 -40.16113,-44.86084 -40.16113,-120.4834 0,-75.62255 40.16113,-120.48339 40.37476,-45.07447 107.66602,-45.07447 z M 370,345.813 l 0,24.89453 95.98438,142.16018 0,151.8847 43.36523,0 0,-151.8847 112.79297,-167.05471 -46.35547,0 L 487.98828,476.97901 399.54883,345.813 370,345.813 Z m 1010.1211,-267.49219 0,-25.63281 -29.0488,0 -87.7989,131.16601 -88.4394,-131.16601 -46.3574,0 112.7929,167.05469 0,151.88476 43.3672,0 0,-151.88476 95.4844,-141.42188 z m -331.5444,3.634435 q -46.9971,0 -74.76812,35.034185 -27.5574,35.03417 -27.5574,95.4895 0,60.2417 27.5574,95.27588 27.77102,35.03418 74.76812,35.03418 46.9971,0 74.3408,-35.03418 27.5574,-35.03418 27.5574,-95.27588 0,-60.45533 -27.5574,-95.4895 -27.3437,-35.034185 -74.3408,-35.034185 z m 0,-35.034179 q 67.0777,0 107.2388,45.074463 40.1611,44.860841 40.1611,120.483401 0,75.40893 -40.1611,120.4834 -40.1611,44.86084 -107.2388,44.86084 -67.29132,0 -107.66612,-44.86084 -40.1611,-44.86084 -40.1611,-120.4834 0,-75.62256 40.1611,-120.483401 40.3748,-45.074463 107.66612,-45.074463 z m -145.33237,6.155604 -43.15234,0 0,208.33398 c 0,27.62858 -3.91525,46.78369 -11.74805,57.46485 -7.83286,10.68115 -21.29133,16.02148 -40.375,16.02148 l -13.45898,0 0,36.31641 16.44922,0 c 32.32833,0 55.75491,-8.68782 70.28125,-26.0625 14.6688,-17.37468 22.0039,-45.28809 22.0039,-83.74024 l 0,-208.33398 z m -338.42212,-0.387782 58.10547,0 141.41846,266.815182 0,-266.815182 41.87014,0 0,318.939212 -58.10549,0 -141.41846,-266.81519 0,266.81519 -41.87012,0 0,-318.939212 z m -194.85546,0 201.66015,0 0,36.315918 -158.5083,0 0,94.421384 151.88599,0 0,36.31592 -151.88599,0 0,115.57007 162.35352,0 0,36.31592 -205.50537,0 0,-318.939212 z m 804.82935,-293.125008 201.6602,0 0,36.31592 -158.5083,0 0,94.42139 151.886,0 0,36.315913 -151.886,0 0,115.570069 162.3535,0 0,36.315918 -205.5054,0 0,-318.93921 z m -197.5302,0 43.1518,0 0,282.623292 155.304,0 0,36.315918 -198.4558,0 0,-318.93921 z m -79.0284,0 43.1519,0 0,318.93921 -43.1519,0 0,-318.93921 z m -325.6855,0 64.30054,0 81.39038,217.041016 81.81758,-217.041016 64.3006,0 0,318.93921 -42.0838,0 0,-280.05981 -82.24483,218.749995 -43.36548,0 -82.24487,-218.749995 0,280.05981 -41.87012,0 0,-318.93921 z m 1.48267,10.46753 0,42.08374 q -24.56665,-11.74927 -46.3562,-17.51709 -21.78955,-5.76782 -42.08374,-5.76782 -35.24781,0 -54.47388,13.67187 -19.01245,13.67188 -19.01245,38.8794 0,21.14868 12.60376,32.04345 12.81738,10.68116 48.27881,17.30347 l 26.06201,5.34058 q 48.27881,9.185789 71.13647,32.470701 23.07129,23.071289 23.07129,61.9506833 0,46.3562007 -31.18896,70.2819827 -30.97534,23.925781 -91.00342,23.925781 -22.64404,0 -48.27881,-5.126953 -25.42114,-5.126953 -52.76489,-15.167237 l 0,-44.433593 q 26.27563,14.73999 51.48315,22.216797 25.20752,7.476806 49.56055,7.476806 36.95679,0 57.03735,-14.526367 20.08057,-14.526367 20.08057,-41.442871 0,-23.498535 -14.52637,-36.743164 -14.31274,-13.244629 -47.21069,-19.866943 l -26.27564,-5.126954 q -48.2788,-9.613037 -69.85473,-30.120849 -21.57593,-20.50781 -21.57593,-57.03735 0,-42.29737 29.6936,-66.65039 29.90723,-24.35303 82.24488,-24.35303 22.43042,0 45.71533,4.05884 23.28491,4.05883 47.63794,12.17651 z M 1597.696,-364.15805 q 13.8855,4.69971 26.9165,20.08057 13.2447,15.38086 26.4893,42.29736 l 43.7927,87.1582 -46.3562,0 -40.802,-81.81762 q -15.8081,-32.04346 -30.7617,-42.51099 -14.74,-10.46753 -40.3747,-10.46753 l -46.9971,0 0,134.79614 -43.1519,0 0,-318.93921 97.4121,0 q 54.6875,0 81.604,22.85767 26.9165,22.85767 26.9165,69.00024 0,30.12085 -14.0991,49.9878 -13.8855,19.86694 -40.5884,27.55737 z m -108.0932,-133.94165 0,113.22021 54.2602,0 q 31.189,0 46.9971,-14.31274 16.0217,-14.52637 16.0217,-42.51099 0,-27.98462 -16.0217,-42.08374 -15.8081,-14.31274 -46.9971,-14.31274 l -54.2602,0 z m -284.4998,-35.46143 43.3655,0 0,193.75611 q 0,51.26953 18.5852,73.91357 18.5852,22.43042 60.2417,22.43042 41.4429,0 60.0281,-22.43042 18.5852,-22.64404 18.5852,-73.91357 l 0,-193.75611 43.3655,0 0,199.09668 q 0,62.37793 -30.9754,94.20777 -30.7617,31.82983 -91.0034,31.82983 -60.4553,0 -91.4307,-31.82983 -30.7617,-31.82984 -30.7617,-94.20777 l 0,-199.09668 z m -129.9914,29.26636 q -46.9971,0 -74.7681,35.03418 -27.5574,35.03418 -27.5574,95.4895 0,60.2417 27.5574,95.27588 27.771,35.03418 74.7681,35.03418 46.997,0 74.3408,-35.03418 27.5574,-35.03418 27.5574,-95.27588 0,-60.45532 -27.5574,-95.4895 -27.3438,-35.03418 -74.3408,-35.03418 z m 0,-35.03418 q 67.0776,0 107.2387,45.07446 40.1612,44.86084 40.1612,120.4834 0,75.40894 -40.1612,120.4834 -40.1611,44.86084 -107.2387,44.86084 -67.2913,0 -107.666,-44.86084 -40.1612,-44.86084 -40.1612,-120.4834 0,-75.62256 40.1612,-120.4834 40.3747,-45.07446 107.666,-45.07446 z m -328.7786,5.76782 46.3562,0 88.44,131.16455 87.799,-131.16455 46.3562,0 -112.7929,167.05323 0,151.88598 -43.3655,0 0,-151.88598 -112.793,-167.05323 z m -274.34496,0 201.66015,0 0,36.31592 -158.5083,0 0,94.42139 151.88599,0 0,36.31592 -151.88599,0 0,115.57006 162.35352,0 0,36.31592 -205.50537,0 0,-318.93921 z m 1.48266,10.46753 0,42.08374 q -24.56665,-11.74926 -46.3562,-17.51709 -21.78955,-5.76782 -42.08374,-5.76782 -35.2478,0 -54.47388,13.67188 -19.01245,13.67187 -19.01245,38.87939 0,21.14868 12.60376,32.04346 12.81739,10.68115 48.27881,17.30346 l 26.06201,5.34058 q 48.27881,9.18579 71.13648,32.4707 23.07129,23.07129 23.07129,61.95069 0,46.3562 -31.18897,70.28198 -30.97534,23.92578 -91.00342,23.92578 -22.64404,0 -48.2788,-5.12695 -25.42115,-5.12696 -52.7649,-15.16724 l 0,-44.43359 q 26.27564,14.73999 51.48316,22.21679 25.20752,7.47681 49.56054,7.47681 36.95679,0 57.03736,-14.52637 20.08056,-14.52636 20.08056,-41.44287 0,-23.49853 -14.52636,-36.74316 -14.31275,-13.24463 -47.2107,-19.86694 l -26.27563,-5.12696 q -48.27881,-9.61303 -69.85474,-30.12085 -21.57592,-20.50781 -21.57592,-57.03735 0,-42.29736 29.6936,-66.65039 29.90723,-24.35303 82.24487,-24.35303 22.43042,0 45.71533,4.05884 23.28492,4.05884 47.63794,12.17651 z m -436.540524,-10.46753 43.365478,0 0,193.75611 q 0,51.26953 18.585205,73.91357 18.585201,22.43042 60.241701,22.43042 41.44287,0 60.02807,-22.43042 18.58521,-22.64404 18.58521,-73.91357 l 0,-193.75611 43.36548,0 0,199.09668 q 0,62.37793 -30.97534,94.20777 -30.76172,31.82983 -91.00342,31.82983 -60.455324,0 -91.430665,-31.82983 -30.761719,-31.82984 -30.761719,-94.20777 l 0,-199.09668 z" />
  </g>
</svg>
